<svg width="40" height="11" viewBox="0 0 40 11" fill="none" xmlns="http://www.w3.org/2000/svg">
<path d="M2.8 10V0.199999H0.938V10H2.8ZM6.23842 10V3.098L10.4944 10H12.4824V0.199999H10.6344V7.116L6.39242 0.199999H4.39042V10H6.23842ZM18.0812 10V1.796H21.0352V0.199999H13.2652V1.796H16.2332V10H18.0812ZM28.7845 7.382C28.7145 6.486 28.2805 5.758 27.6085 5.338C28.4205 4.918 28.9245 4.232 28.9245 3.224C28.9245 1.446 27.7205 0.199999 25.6765 0.199999H21.6585V10H23.5205V6.318H25.6345C26.3625 6.318 26.8805 6.85 26.9505 7.592L27.1885 10H29.0225L28.7845 7.382ZM25.5925 1.754C26.6845 1.754 27.1325 2.44 27.1325 3.224C27.1325 4.008 26.6845 4.722 25.5925 4.722H23.5205V1.754H25.5925ZM34.6505 10.112C37.4925 10.112 39.5925 7.984 39.5925 5.1C39.5925 2.216 37.4925 0.0879999 34.6505 0.0879999C31.7945 0.0879999 29.6945 2.216 29.6945 5.1C29.6945 7.984 31.7945 10.112 34.6505 10.112ZM34.6365 8.502C32.8585 8.502 31.5565 7.06 31.5565 5.1C31.5565 3.14 32.8585 1.684 34.6365 1.684C36.4285 1.684 37.7305 3.14 37.7305 5.1C37.7305 7.06 36.4285 8.502 34.6365 8.502Z" fill="#1A1B1C"/>
</svg>
